<?xml version="1.0" encoding="utf-8"?>
<!-- Generator: Adobe Illustrator 22.1.0, SVG Export Plug-In . SVG Version: 6.00 Build 0)  -->
<svg version="1.1" id="Capa_1" xmlns="http://www.w3.org/2000/svg" xmlns:xlink="http://www.w3.org/1999/xlink" x="0px" y="0px"
	 viewBox="0 0 171 138" style="enable-background:new 0 0 171 138;" xml:space="preserve">
<g>
	<g style="opacity:0.6;">
		<path style="fill:#3E2C25;" d="M162.8,46.6C162.8,46.6,162.8,46.6,162.8,46.6h-40.5h-0.4c-0.2-12.9-7.1-24.7-18.2-31.2
			c-5.6-3.3-11.9-4.9-18.2-4.9c-6.3,0-12.6,1.6-18.2,4.9c-11.1,6.5-18,18.3-18.2,31.2h-0.4H8.2H7.6v42.7h155.8V46.6H162.8z"/>
	</g>
	<linearGradient id="SVGID_1_" gradientUnits="userSpaceOnUse" x1="41.1356" y1="122.0358" x2="129.8376" y2="122.0358">
		<stop  offset="5.076140e-03" style="stop-color:#993D16"/>
		<stop  offset="0.1469" style="stop-color:#F8F2B1"/>
		<stop  offset="0.1619" style="stop-color:#F7EFAD"/>
		<stop  offset="0.178" style="stop-color:#F5E6A0"/>
		<stop  offset="0.1946" style="stop-color:#F0D78A"/>
		<stop  offset="0.2116" style="stop-color:#EAC26C"/>
		<stop  offset="0.2287" style="stop-color:#E3A746"/>
		<stop  offset="0.245" style="stop-color:#DA891A"/>
		<stop  offset="0.2843" style="stop-color:#F2BB4D"/>
		<stop  offset="0.5112" style="stop-color:#C9A66E"/>
		<stop  offset="0.5497" style="stop-color:#CBAA72"/>
		<stop  offset="0.5871" style="stop-color:#D3B67C"/>
		<stop  offset="0.624" style="stop-color:#DFC98E"/>
		<stop  offset="0.6604" style="stop-color:#F0E4A7"/>
		<stop  offset="0.6756" style="stop-color:#F9F2B3"/>
		<stop  offset="0.7316" style="stop-color:#F8F0B1"/>
		<stop  offset="0.7518" style="stop-color:#F6EBAA"/>
		<stop  offset="0.7662" style="stop-color:#F2E19F"/>
		<stop  offset="0.7778" style="stop-color:#EDD38E"/>
		<stop  offset="0.7877" style="stop-color:#E6C178"/>
		<stop  offset="0.7966" style="stop-color:#DDAB5C"/>
		<stop  offset="0.8044" style="stop-color:#D2913D"/>
		<stop  offset="0.8115" style="stop-color:#C67418"/>
		<stop  offset="0.8123" style="stop-color:#C57014"/>
		<stop  offset="1" style="stop-color:#F9F0AF"/>
	</linearGradient>
	<polygon style="fill:url(#SVGID_1_);" points="87.2,114.9 83.7,114.9 43.5,114.9 41.1,129.2 83.7,129.2 87.2,129.2 129.8,129.2 
		127.4,114.9 	"/>
	<linearGradient id="SVGID_2_" gradientUnits="userSpaceOnUse" x1="14.7356" y1="115.4357" x2="53.9899" y2="115.4357">
		<stop  offset="5.076140e-03" style="stop-color:#993D16"/>
		<stop  offset="0.1469" style="stop-color:#F8F2B1"/>
		<stop  offset="0.1619" style="stop-color:#F7EFAD"/>
		<stop  offset="0.178" style="stop-color:#F5E6A0"/>
		<stop  offset="0.1946" style="stop-color:#F0D78A"/>
		<stop  offset="0.2116" style="stop-color:#EAC26C"/>
		<stop  offset="0.2287" style="stop-color:#E3A746"/>
		<stop  offset="0.245" style="stop-color:#DA891A"/>
		<stop  offset="0.2843" style="stop-color:#F2BB4D"/>
		<stop  offset="0.5112" style="stop-color:#C9A66E"/>
		<stop  offset="0.5497" style="stop-color:#CBAA72"/>
		<stop  offset="0.5871" style="stop-color:#D3B67C"/>
		<stop  offset="0.624" style="stop-color:#DFC98E"/>
		<stop  offset="0.6604" style="stop-color:#F0E4A7"/>
		<stop  offset="0.6756" style="stop-color:#F9F2B3"/>
		<stop  offset="0.7316" style="stop-color:#F8F0B1"/>
		<stop  offset="0.7518" style="stop-color:#F6EBAA"/>
		<stop  offset="0.7662" style="stop-color:#F2E19F"/>
		<stop  offset="0.7778" style="stop-color:#EDD38E"/>
		<stop  offset="0.7877" style="stop-color:#E6C178"/>
		<stop  offset="0.7966" style="stop-color:#DDAB5C"/>
		<stop  offset="0.8044" style="stop-color:#D2913D"/>
		<stop  offset="0.8115" style="stop-color:#C67418"/>
		<stop  offset="0.8123" style="stop-color:#C57014"/>
		<stop  offset="1" style="stop-color:#F9F0AF"/>
	</linearGradient>
	<polygon style="fill:url(#SVGID_2_);" points="50.5,109.9 43.8,114 52.7,113.9 54,109.7 54,108.3 53.2,108.3 42.6,108.3 
		37.7,108.3 14.7,108.3 20,115.3 14.7,122.6 40,122.6 41.7,113.4 	"/>
	<linearGradient id="SVGID_3_" gradientUnits="userSpaceOnUse" x1="116.9775" y1="115.4357" x2="156.2333" y2="115.4357">
		<stop  offset="5.076140e-03" style="stop-color:#993D16"/>
		<stop  offset="0.1469" style="stop-color:#F8F2B1"/>
		<stop  offset="0.1619" style="stop-color:#F7EFAD"/>
		<stop  offset="0.178" style="stop-color:#F5E6A0"/>
		<stop  offset="0.1946" style="stop-color:#F0D78A"/>
		<stop  offset="0.2116" style="stop-color:#EAC26C"/>
		<stop  offset="0.2287" style="stop-color:#E3A746"/>
		<stop  offset="0.245" style="stop-color:#DA891A"/>
		<stop  offset="0.2843" style="stop-color:#F2BB4D"/>
		<stop  offset="0.5112" style="stop-color:#C9A66E"/>
		<stop  offset="0.5497" style="stop-color:#CBAA72"/>
		<stop  offset="0.5871" style="stop-color:#D3B67C"/>
		<stop  offset="0.624" style="stop-color:#DFC98E"/>
		<stop  offset="0.6604" style="stop-color:#F0E4A7"/>
		<stop  offset="0.6756" style="stop-color:#F9F2B3"/>
		<stop  offset="0.7316" style="stop-color:#F8F0B1"/>
		<stop  offset="0.7518" style="stop-color:#F6EBAA"/>
		<stop  offset="0.7662" style="stop-color:#F2E19F"/>
		<stop  offset="0.7778" style="stop-color:#EDD38E"/>
		<stop  offset="0.7877" style="stop-color:#E6C178"/>
		<stop  offset="0.7966" style="stop-color:#DDAB5C"/>
		<stop  offset="0.8044" style="stop-color:#D2913D"/>
		<stop  offset="0.8115" style="stop-color:#C67418"/>
		<stop  offset="0.8123" style="stop-color:#C57014"/>
		<stop  offset="1" style="stop-color:#F9F0AF"/>
	</linearGradient>
	<polygon style="fill:url(#SVGID_3_);" points="156.2,108.3 133.2,108.3 128.3,108.3 117.8,108.3 117,108.3 117,109.7 118.3,113.9 
		127.2,114 120.5,109.9 129.3,113.4 130.9,122.6 156.2,122.6 151,115.3 	"/>
	<g>
		<path style="fill:#1D1D1B;" d="M30,76.1c0,2.2,0.5,2.5,2.8,2.5v0.6c-1.1,0-3.1-0.1-5.2-0.1c-1.5,0-3.1,0.1-4.5,0.1v-0.5
			c1.5-0.1,1.8-0.3,1.8-2.3V63.2c0-1.9-0.3-2.2-1.8-2.3v-0.5c1,0.1,2.7,0.1,4.3,0.1c1.7,0,3.4-0.1,4-0.1c5.1,0,7.5,2.1,7.5,5.2
			c0,2.6-1.7,5.9-8.1,5.9H30V76.1z M30.7,71c2.6,0,3.1-2.4,3.1-5.1c0-3.3-0.6-5-2.4-5c-1.1,0-1.4,0.5-1.4,2.3V71H30.7z"/>
		<path style="fill:#1D1D1B;" d="M49.9,60.9c-1.5,0.1-1.8,0.3-1.8,2.3v13.1c0,1.9,0.3,2.2,1.8,2.3v0.5c-1-0.1-2.6-0.1-4.2-0.1
			c-1.8,0-3.5,0-4.5,0.1v-0.5c1.5-0.1,1.8-0.3,1.8-2.3V63.2c0-1.9-0.3-2.2-1.8-2.3v-0.5c1,0.1,2.7,0.1,4.5,0.1c1.6,0,3.2,0,4.2-0.1
			V60.9z"/>
		<path style="fill:#1D1D1B;" d="M69,60.9c-1.5,0.3-1.8,1.1-1.8,4.1v6.4c0,2.2-0.2,4.2-1,5.6c-0.9,1.5-2.5,2.5-5.4,2.5
			c-1.5,0-3.4-0.3-4.7-1.3c-1.7-1.3-2.1-3.5-2.1-6.7v-8.3c0-1.9-0.2-2.2-1.8-2.3v-0.5c0.9,0.1,2.7,0.1,4.4,0.1c1.7,0,3.5,0,4.5-0.1
			v0.5c-1.7,0.1-2,0.3-2,2.3V74c0,3.5,1.1,4.6,3.1,4.6c3.3,0,4.4-2.8,4.4-6.8v-6.1c0-3.5-0.1-4.3-2.5-4.7v-0.5
			c0.7,0.1,1.9,0.1,2.8,0.1c0.7,0,1.6,0,2.1-0.1V60.9z"/>
		<path style="fill:#1D1D1B;" d="M90.4,78.3c-0.2,2.3-0.8,4-1.8,4.9c-0.8,0.6-2,0.9-3.1,0.9c-2.8,0-5.4-1.5-8.3-2.8
			c-0.2-0.1-0.5-0.2-0.6-0.2c-0.7,0.4-1.5,0.7-2.1,0.7c-0.7,0-1.2-0.2-1.2-0.8c0-0.5,0.5-0.8,1.4-0.8c0.5,0,1.3,0.2,1.9,0.5
			c1.2-0.3,2-0.8,3-1.2c-4.9-0.5-8.1-3.9-8.1-9.5c0-5.9,3.9-9.9,9.5-9.9c5.7,0,9.4,3.5,9.4,9.6c0,5.8-3.7,9.7-9.1,9.9
			c-1.5,0.2-2.3,0.8-3.8,1.3c1.8,0.1,3.3,0.1,4.6,0.1c1.7,0,3-0.1,4.3-0.4c1.8-0.4,2.8-1,3.6-2.3L90.4,78.3z M81,79
			c2.5,0,4.1-3.8,4.1-9.3c0-5.6-1.9-9.2-4.3-9.2c-2.5,0-4.1,3.8-4.1,9.3C76.7,75.5,78.6,79,81,79z"/>
		<path style="fill:#1D1D1B;" d="M109.5,60.9c-1.5,0.3-1.8,1.1-1.8,4.1v6.4c0,2.2-0.2,4.2-1,5.6c-0.9,1.5-2.5,2.5-5.4,2.5
			c-1.5,0-3.4-0.3-4.7-1.3c-1.7-1.3-2.1-3.5-2.1-6.7v-8.3c0-1.9-0.2-2.2-1.8-2.3v-0.5c0.9,0.1,2.7,0.1,4.4,0.1c1.7,0,3.5,0,4.5-0.1
			v0.5c-1.7,0.1-2,0.3-2,2.3V74c0,3.5,1.1,4.6,3.1,4.6c3.3,0,4.4-2.8,4.4-6.8v-6.1c0-3.5-0.1-4.3-2.5-4.7v-0.5
			c0.7,0.1,1.9,0.1,2.8,0.1c0.7,0,1.6,0,2.1-0.1V60.9z"/>
		<path style="fill:#1D1D1B;" d="M126.3,72.3c0,0.6-0.1,1.5-0.1,2.4c0,0.9,0,2.7,0.2,4.4c-1.7-0.1-4.1-0.1-5.7-0.1
			c-1.8,0-5.8,0-8.8,0.1v-0.5c1.5-0.1,1.8-0.3,1.8-2.3V63.2c0-1.9-0.3-2.2-1.8-2.3v-0.5c2.9,0.1,7,0.1,8.8,0.1c1.5,0,3.7,0,5.2-0.1
			c-0.1,1.8-0.2,3.6-0.2,4.4c0,0.7,0,1.5,0.1,1.9h-0.6c-0.6-4.4-2.6-5.7-4.6-5.7h-0.3c-1.3,0-1.5,0.2-1.5,1.7v6.8h0.3
			c1.9,0,3.1-2,3.4-3.5h0.6c-0.1,1.2-0.1,2-0.1,2.6c0,0.5,0,0.8,0,1.2c0,0.9,0,1.7,0.2,3.8h-0.6c-0.3-2-1.6-3.5-3.5-3.5h-0.3v6.9
			c0,1.5,0.2,1.7,1.5,1.7h0.8c1.6,0,3.8-1.5,4.6-6.3H126.3z"/>
		<path style="fill:#1D1D1B;" d="M146.5,60.9c-1.5,0.3-1.8,1.1-1.8,4.1v14.1c-0.2,0-0.5,0-0.8,0c-0.3,0-0.6,0-0.9,0l-11.1-12.8V74
			c0,3.5,0.1,4.3,2.5,4.7v0.5c-0.7-0.1-1.9-0.1-2.8-0.1c-0.7,0-1.6,0-2.1,0.1v-0.5c1.5-0.3,1.8-1.1,1.8-4.1V63.2
			c0-1.9-0.3-2.2-1.8-2.3v-0.5c0.5,0.1,1.3,0.1,2.1,0.1c0.8,0,1.7,0,2.3-0.1l10.2,11.4v-6.3c0-3.5-0.1-4.3-2.5-4.7v-0.5
			c0.7,0.1,1.9,0.1,2.8,0.1c0.7,0,1.6,0,2.1-0.1V60.9z"/>
	</g>
	<g>
		<path style="fill:#6A3A22;" d="M61.6,124.4c0,0.8,0.2,0.9,1.1,0.9v0.2c-0.4,0-1.2,0-2,0c-0.6,0-1.2,0-1.7,0v-0.2
			c0.6,0,0.7-0.1,0.7-0.9v-5c0-0.7-0.1-0.8-0.7-0.9v-0.2c0.4,0,1,0,1.7,0c0.6,0,1.3,0,1.5,0c1.9,0,2.9,0.8,2.9,2
			c0,1-0.7,2.3-3.1,2.3h-0.4V124.4z M61.9,122.4c1,0,1.2-0.9,1.2-2c0-1.3-0.2-1.9-0.9-1.9c-0.4,0-0.5,0.2-0.5,0.9v3H61.9z"/>
		<path style="fill:#6A3A22;" d="M72.8,125.1c-0.4,0.4-0.9,0.5-1.4,0.5c-0.8,0-1.4-0.3-1.5-1.1l-0.1-1c-0.1-0.8-0.3-1.4-0.8-1.4
			h-0.4v2.3c0,0.7,0.1,0.8,0.7,0.9v0.2c-0.4,0-1,0-1.6,0c-0.7,0-1.3,0-1.7,0v-0.2c0.6,0,0.7-0.1,0.7-0.9v-5c0-0.7-0.1-0.8-0.7-0.9
			v-0.2c0.4,0,1,0,1.7,0c0.6,0,1.3,0,1.5,0c1.9,0,2.9,0.6,2.9,1.8c0,0.9-0.5,1.8-2.3,2c1.3,0.1,1.9,0.5,2.1,1.3l0.2,1.1
			c0.1,0.5,0.2,0.7,0.4,0.7c0.1,0,0.2,0,0.3-0.1L72.8,125.1z M68.9,121.9c1,0,1.2-0.8,1.2-1.7c0-1.1-0.2-1.7-0.9-1.7
			c-0.4,0-0.5,0.2-0.5,0.9v2.5H68.9z"/>
		<path style="fill:#6A3A22;" d="M78.9,122.9c0,0.2,0,0.6,0,0.9c0,0.3,0,1,0.1,1.7c-0.7,0-1.6,0-2.2,0c-0.7,0-2.2,0-3.4,0v-0.2
			c0.6,0,0.7-0.1,0.7-0.9v-5c0-0.7-0.1-0.8-0.7-0.9v-0.2c1.1,0,2.7,0,3.4,0c0.6,0,1.4,0,2,0c0,0.7-0.1,1.4-0.1,1.7
			c0,0.3,0,0.6,0,0.7h-0.2c-0.2-1.7-1-2.2-1.8-2.2h-0.1c-0.5,0-0.6,0.1-0.6,0.6v2.6h0.1c0.7,0,1.2-0.7,1.3-1.3h0.2c0,0.4,0,0.7,0,1
			c0,0.2,0,0.3,0,0.5c0,0.3,0,0.7,0.1,1.4h-0.2c-0.1-0.8-0.6-1.3-1.3-1.3H76v2.6c0,0.6,0.1,0.6,0.6,0.6h0.3c0.6,0,1.5-0.6,1.8-2.4
			H78.9z"/>
		<path style="fill:#6A3A22;" d="M88.9,118.6c-0.6,0-0.7,0.1-0.7,0.9v5c0,0.7,0.1,0.8,0.7,0.9v0.2c-0.4,0-1.1,0-1.7,0
			c-0.7,0-1.3,0-1.7,0v-0.2c0.7,0,0.8-0.1,0.8-0.9v-5.2l-2.3,6.3h-0.2l-2.7-6.5v4.5c0,1.4,0.1,1.6,1,1.8v0.2c-0.3,0-0.7,0-1.1,0
			c-0.3,0-0.6,0-0.8,0v-0.2c0.6-0.1,0.7-0.4,0.7-1.6v-4.3c0-0.7-0.1-0.8-0.7-0.9v-0.2c0.2,0,0.5,0,0.8,0c0.7,0,1.4,0,2,0l1.8,4.3
			l1.6-4.3h0.8c0.6,0,1.3,0,1.7,0V118.6z"/>
		<path style="fill:#6A3A22;" d="M93.2,118.6c-0.6,0-0.7,0.1-0.7,0.9v5c0,0.7,0.1,0.8,0.7,0.9v0.2c-0.4,0-1,0-1.6,0
			c-0.7,0-1.3,0-1.7,0v-0.2c0.6,0,0.7-0.1,0.7-0.9v-5c0-0.7-0.1-0.8-0.7-0.9v-0.2c0.4,0,1,0,1.7,0c0.6,0,1.2,0,1.6,0V118.6z"/>
		<path style="fill:#6A3A22;" d="M100.5,118.6c-0.6,0.1-0.7,0.4-0.7,1.6v2.4c0,0.8-0.1,1.6-0.4,2.1c-0.3,0.6-1,0.9-2.1,0.9
			c-0.6,0-1.3-0.1-1.8-0.5c-0.7-0.5-0.8-1.3-0.8-2.6v-3.2c0-0.7-0.1-0.8-0.7-0.9v-0.2c0.4,0,1,0,1.7,0c0.7,0,1.3,0,1.7,0v0.2
			c-0.7,0-0.8,0.1-0.8,0.9v4.1c0,1.3,0.4,1.8,1.2,1.8c1.3,0,1.7-1.1,1.7-2.6v-2.4c0-1.4-0.1-1.6-1-1.8v-0.2c0.3,0,0.7,0,1.1,0
			c0.3,0,0.6,0,0.8,0V118.6z"/>
		<path style="fill:#6A3A22;" d="M110.2,118.6c-0.6,0-0.7,0.1-0.7,0.9v5c0,0.7,0.1,0.8,0.7,0.9v0.2c-0.4,0-1.1,0-1.7,0
			c-0.7,0-1.3,0-1.7,0v-0.2c0.7,0,0.8-0.1,0.8-0.9v-5.2l-2.3,6.3h-0.2l-2.7-6.5v4.5c0,1.4,0.1,1.6,1,1.8v0.2c-0.3,0-0.7,0-1.1,0
			c-0.3,0-0.6,0-0.8,0v-0.2c0.6-0.1,0.7-0.4,0.7-1.6v-4.3c0-0.7-0.1-0.8-0.7-0.9v-0.2c0.2,0,0.5,0,0.8,0c0.7,0,1.4,0,2,0l1.8,4.3
			l1.6-4.3h0.8c0.6,0,1.3,0,1.7,0V118.6z"/>
	</g>
	<rect x="7.6" y="88.4" style="fill:#3E2C25;" width="155.8" height="17"/>
	<g>
		
			<image style="overflow:visible;opacity:0.75;" width="1420" height="200" xlink:href="722F42EC.png"  transform="matrix(9.433461e-02 0 0 9.433461e-02 19.964 89.9335)">
		</image>
		<g>
			<path style="fill:#F4DFB8;" d="M30.2,102c0-0.5-0.1-0.7-0.3-0.7c-0.1,0-0.1,0-0.2,0.1c-0.6,0.4-1.1,0.8-2.1,0.8
				c-2.5,0-4.2-1.6-4.2-4.3c0-2.6,1.7-4.4,4.2-4.4c1,0,1.6,0.4,2.1,0.8c0.1,0.1,0.2,0.1,0.2,0.1c0.2,0,0.2-0.2,0.3-0.7h0.3
				c0,0.6,0,1.5,0,3h-0.3c-0.1-1.1-0.3-1.9-1-2.4c-0.3-0.2-0.7-0.4-1-0.4c-1.7,0-2.1,2.2-2.1,4c0,1.8,0.4,4,2.1,4
				c0.4,0,0.7-0.1,1-0.4c0.7-0.5,0.9-1.3,1-2.6h0.3c0,1.5,0,2.4,0,3.1H30.2z"/>
			<path style="fill:#F4DFB8;" d="M45,93.8c-0.7,0-0.8,0.2-0.8,1v5.9c0,0.9,0.1,1,0.8,1v0.2c-0.4,0-1.1,0-1.9,0c-0.7,0-1.5,0-2,0
				v-0.2c0.7,0,0.8-0.2,0.8-1v-2.8h-2.5v2.8c0,0.9,0.1,1,0.8,1v0.2c-0.4,0-1.2,0-1.9,0c-0.8,0-1.6,0-2,0v-0.2c0.7,0,0.8-0.2,0.8-1
				v-5.9c0-0.9-0.1-1-0.8-1v-0.2c0.4,0,1.2,0,2,0c0.7,0,1.4,0,1.9,0v0.2c-0.7,0-0.8,0.2-0.8,1v2.8h2.5v-2.8c0-0.9-0.1-1-0.8-1v-0.2
				c0.5,0,1.2,0,2,0c0.8,0,1.5,0,1.9,0V93.8z"/>
			<path style="fill:#F4DFB8;" d="M59.1,97.7c0,2.6-1.7,4.4-4.2,4.4c-2.5,0-4.2-1.6-4.2-4.3c0-2.6,1.7-4.4,4.2-4.4
				C57.4,93.4,59.1,95,59.1,97.7z M53,97.8c0,2.5,0.9,4.1,1.9,4.1c1.1,0,1.8-1.7,1.8-4.2c0-2.5-0.9-4.1-1.9-4.1
				C53.7,93.6,53,95.3,53,97.8z"/>
			<path style="fill:#F4DFB8;" d="M71.7,102c0-0.5-0.1-0.7-0.3-0.7c-0.1,0-0.1,0-0.2,0.1c-0.6,0.4-1.1,0.8-2.1,0.8
				c-2.5,0-4.2-1.6-4.2-4.3c0-2.6,1.7-4.4,4.2-4.4c1,0,1.6,0.4,2.1,0.8c0.1,0.1,0.2,0.1,0.2,0.1c0.2,0,0.2-0.2,0.3-0.7H72
				c0,0.6,0,1.5,0,3h-0.3c-0.1-1.1-0.3-1.9-1-2.4c-0.3-0.2-0.7-0.4-1-0.4c-1.7,0-2.1,2.2-2.1,4c0,1.8,0.4,4,2.1,4
				c0.4,0,0.7-0.1,1-0.4c0.7-0.5,0.9-1.3,1-2.6h0.3c0,1.5,0,2.4,0,3.1H71.7z"/>
			<path style="fill:#F4DFB8;" d="M86.4,97.7c0,2.6-1.7,4.4-4.2,4.4c-2.5,0-4.2-1.6-4.2-4.3c0-2.6,1.7-4.4,4.2-4.4
				C84.7,93.4,86.4,95,86.4,97.7z M80.3,97.8c0,2.5,0.9,4.1,1.9,4.1c1.1,0,1.8-1.7,1.8-4.2c0-2.5-0.9-4.1-1.9-4.1
				C81,93.6,80.3,95.3,80.3,97.8z"/>
			<path style="fill:#F4DFB8;" d="M96,93.8c-0.8,0-0.9,0.2-0.9,1v6.1c0,0.7,0.1,0.7,0.6,0.7H96c0.8,0,1.9-1.4,2.2-2.9h0.3
				c0,0.3,0,0.7,0,1.1c0,0.4,0,1.3,0.1,2.1c-0.8,0-1.8,0-2.6,0c-0.8,0-2.6,0-3.9,0v-0.2c0.7,0,0.8-0.2,0.8-1v-5.9c0-0.9-0.1-1-0.8-1
				v-0.2c0.4,0,1.2,0,2,0c0.7,0,1.5,0,2,0V93.8z"/>
			<path style="fill:#F4DFB8;" d="M110.9,101c0.2,0.5,0.5,0.7,0.7,0.8v0.2c-0.5,0-1.3,0-2,0c-0.8,0-1.5,0-1.9,0v-0.2
				c0.5,0,0.8-0.1,0.8-0.4c0-0.1,0-0.3-0.1-0.6l-0.7-1.9h-2.3l-0.2,0.5c-0.3,0.7-0.4,1.2-0.4,1.5c0,0.7,0.4,0.8,1,0.9v0.2
				c-0.6,0-0.9,0-1.5,0c-0.3,0-0.6,0-0.9,0v-0.2c0.3-0.1,0.7-0.4,1-1.4l2.5-6.7c0.2,0,0.4,0,0.6,0c0.2,0,0.4,0,0.6,0L110.9,101z
				 M106.6,95.6l-1.1,3h2.1L106.6,95.6z"/>
			<path style="fill:#F4DFB8;" d="M115.9,96.8c0-0.2,0-0.5,0-0.8c0-0.5,0-1.4-0.1-2.3c1.1,0,2.6,0,3.7,0c1,0,2.6,0,3.6,0
				c-0.1,0.9-0.1,1.9-0.1,2.3c0,0.3,0,0.6,0,0.8h-0.3c-0.5-2.2-1.4-2.9-2.2-2.9h0v6.8c0,1,0.2,1.1,1.2,1.1v0.2c-0.5,0-1.5,0-2.5,0
				c-0.9,0-1.8,0-2.3,0v-0.2c1,0,1.2-0.1,1.2-1.1v-6.8h0c-0.8,0-1.7,0.7-2.2,2.9H115.9z"/>
			<path style="fill:#F4DFB8;" d="M135.2,98.9c0,0.3,0,0.7,0,1.1c0,0.4,0,1.2,0.1,2c-0.8,0-1.8,0-2.6,0c-0.8,0-2.6,0-3.9,0v-0.2
				c0.7,0,0.8-0.2,0.8-1v-5.9c0-0.9-0.1-1-0.8-1v-0.2c1.3,0,3.1,0,3.9,0c0.7,0,1.6,0,2.3,0c-0.1,0.8-0.1,1.6-0.1,2
				c0,0.3,0,0.7,0,0.9h-0.3c-0.3-2-1.1-2.6-2.1-2.6h-0.1c-0.6,0-0.7,0.1-0.7,0.7v3h0.1c0.8,0,1.4-0.9,1.5-1.6h0.3c0,0.5,0,0.9,0,1.1
				c0,0.2,0,0.4,0,0.5c0,0.4,0,0.8,0.1,1.7h-0.3c-0.1-0.9-0.7-1.6-1.6-1.6h-0.1v3.1c0,0.7,0.1,0.7,0.7,0.7h0.4
				c0.7,0,1.7-0.7,2.1-2.8H135.2z"/>
			<path style="fill:#F4DFB8;" d="M141.6,98.6c0.1,1.7,0.6,3.2,2,3.2c0.8,0,1.3-0.4,1.3-1.2c0-1-0.7-1.6-1.6-2.2
				c-1.1-0.8-2-1.4-2-2.7c0-1.5,1.3-2.2,2.8-2.2c1,0,1.4,0.2,1.8,0.5c0.2,0.1,0.3,0.2,0.4,0.2c0.1,0,0.2-0.2,0.2-0.5h0.3
				c0,0.5-0.1,1.1-0.1,2.9h-0.3c-0.1-1.3-0.8-2.7-1.9-2.7c-0.7,0-1.1,0.4-1.1,1.1c0,0.9,0.6,1.2,2,2.3c1,0.7,1.8,1.4,1.8,2.7
				c0,1.6-1.4,2.3-3,2.3c-1,0-1.6-0.2-2-0.4c-0.2-0.1-0.3-0.2-0.4-0.2c-0.1,0-0.2,0.2-0.3,0.5h-0.3c0-0.6,0-1.4,0-3.4H141.6z"/>
		</g>
	</g>
	<g>
		<path style="fill:#FFFFFF;" d="M28.8,77c0,2.2,0.5,2.5,2.8,2.5v0.6c-1.1,0-3.1-0.1-5.2-0.1c-1.5,0-3.1,0.1-4.5,0.1v-0.5
			c1.5-0.1,1.8-0.3,1.8-2.3V64.2c0-1.9-0.3-2.2-1.8-2.3v-0.5c1,0.1,2.7,0.1,4.3,0.1c1.7,0,3.4-0.1,4-0.1c5.1,0,7.5,2.1,7.5,5.2
			c0,2.6-1.7,5.9-8.1,5.9h-0.9V77z M29.5,72c2.6,0,3.1-2.4,3.1-5.1c0-3.3-0.6-5-2.4-5c-1.1,0-1.4,0.5-1.4,2.3V72H29.5z"/>
		<path style="fill:#FFFFFF;" d="M48.7,61.9C47.2,62,47,62.3,47,64.2v13.1c0,1.9,0.3,2.2,1.8,2.3v0.5c-1-0.1-2.6-0.1-4.2-0.1
			c-1.8,0-3.5,0-4.5,0.1v-0.5c1.5-0.1,1.8-0.3,1.8-2.3V64.2c0-1.9-0.3-2.2-1.8-2.3v-0.5c1,0.1,2.7,0.1,4.5,0.1c1.6,0,3.2,0,4.2-0.1
			V61.9z"/>
		<path style="fill:#FFFFFF;" d="M67.8,61.9c-1.5,0.3-1.8,1.1-1.8,4.1v6.4c0,2.2-0.2,4.2-1,5.6c-0.9,1.5-2.5,2.5-5.4,2.5
			c-1.5,0-3.4-0.3-4.7-1.3c-1.7-1.3-2.1-3.5-2.1-6.7v-8.3c0-1.9-0.2-2.2-1.8-2.3v-0.5c0.9,0.1,2.7,0.1,4.4,0.1c1.7,0,3.5,0,4.5-0.1
			v0.5c-1.7,0.1-2,0.3-2,2.3V75c0,3.5,1.1,4.6,3.1,4.6c3.3,0,4.4-2.8,4.4-6.8v-6.1c0-3.5-0.1-4.3-2.5-4.7v-0.5
			c0.7,0.1,1.9,0.1,2.8,0.1c0.7,0,1.6,0,2.1-0.1V61.9z"/>
		<path style="fill:#FFFFFF;" d="M89.2,79.3c-0.2,2.3-0.8,4-1.8,4.9c-0.8,0.6-2,0.9-3.1,0.9c-2.8,0-5.4-1.5-8.3-2.8
			c-0.2-0.1-0.5-0.2-0.6-0.2c-0.7,0.4-1.5,0.7-2.1,0.7c-0.7,0-1.2-0.2-1.2-0.8c0-0.5,0.5-0.8,1.4-0.8c0.5,0,1.3,0.2,1.9,0.5
			c1.2-0.3,2-0.8,3-1.2c-4.9-0.5-8.1-3.9-8.1-9.5c0-5.9,3.9-9.9,9.5-9.9c5.7,0,9.4,3.5,9.4,9.6c0,5.8-3.7,9.7-9.1,9.9
			c-1.5,0.2-2.3,0.8-3.8,1.3c1.8,0.1,3.3,0.1,4.6,0.1c1.7,0,3-0.1,4.3-0.4c1.8-0.4,2.8-1,3.6-2.3L89.2,79.3z M79.8,80
			c2.5,0,4.1-3.8,4.1-9.3c0-5.6-1.9-9.2-4.3-9.2c-2.5,0-4.1,3.8-4.1,9.3C75.5,76.4,77.5,80,79.8,80z"/>
		<path style="fill:#FFFFFF;" d="M108.3,61.9c-1.5,0.3-1.8,1.1-1.8,4.1v6.4c0,2.2-0.2,4.2-1,5.6c-0.9,1.5-2.5,2.5-5.4,2.5
			c-1.5,0-3.4-0.3-4.7-1.3c-1.7-1.3-2.1-3.5-2.1-6.7v-8.3c0-1.9-0.2-2.2-1.8-2.3v-0.5c0.9,0.1,2.7,0.1,4.4,0.1c1.7,0,3.5,0,4.5-0.1
			v0.5c-1.7,0.1-2,0.3-2,2.3V75c0,3.5,1.1,4.6,3.1,4.6c3.3,0,4.4-2.8,4.4-6.8v-6.1c0-3.5-0.1-4.3-2.5-4.7v-0.5
			c0.7,0.1,1.9,0.1,2.8,0.1c0.7,0,1.6,0,2.1-0.1V61.9z"/>
		<path style="fill:#FFFFFF;" d="M125.1,73.2c0,0.6-0.1,1.5-0.1,2.4c0,0.9,0,2.7,0.2,4.4c-1.7-0.1-4.1-0.1-5.7-0.1
			c-1.8,0-5.8,0-8.8,0.1v-0.5c1.5-0.1,1.8-0.3,1.8-2.3V64.2c0-1.9-0.3-2.2-1.8-2.3v-0.5c2.9,0.1,7,0.1,8.8,0.1c1.5,0,3.7,0,5.2-0.1
			c-0.1,1.8-0.2,3.6-0.2,4.4c0,0.7,0,1.5,0.1,1.9H124c-0.6-4.4-2.6-5.7-4.6-5.7h-0.3c-1.3,0-1.5,0.2-1.5,1.7v6.8h0.3
			c1.9,0,3.1-2,3.4-3.5h0.6c-0.1,1.2-0.1,2-0.1,2.6c0,0.5,0,0.8,0,1.2c0,0.9,0,1.7,0.2,3.8h-0.6c-0.3-2-1.6-3.5-3.5-3.5h-0.3v6.9
			c0,1.5,0.2,1.7,1.5,1.7h0.8c1.6,0,3.8-1.5,4.6-6.3H125.1z"/>
		<path style="fill:#FFFFFF;" d="M145.4,61.9c-1.5,0.3-1.8,1.1-1.8,4.1v14.1c-0.2,0-0.5,0-0.8,0c-0.3,0-0.6,0-0.9,0l-11.1-12.8v7.6
			c0,3.5,0.1,4.3,2.5,4.7v0.5c-0.7-0.1-1.9-0.1-2.8-0.1c-0.7,0-1.6,0-2.1,0.1v-0.5c1.5-0.3,1.8-1.1,1.8-4.1V64.2
			c0-1.9-0.3-2.2-1.8-2.3v-0.5c0.5,0.1,1.3,0.1,2.1,0.1c0.8,0,1.7,0,2.3-0.1L143,72.8v-6.3c0-3.5-0.1-4.3-2.5-4.7v-0.5
			c0.7,0.1,1.9,0.1,2.8,0.1c0.7,0,1.6,0,2.1-0.1V61.9z"/>
	</g>
	<rect x="7.5" y="87.5" style="fill:#FFFFFF;" width="155.8" height="1.7"/>
	<path style="fill:#FFFFFF;" d="M122.5,44.7c-0.6-19.8-16.9-35.8-36.9-35.8c-20,0-36.3,16-36.9,35.8h-41v1.8h42.8v-0.9
		c0.1-19.3,15.8-34.9,35.1-34.9c19.3,0,35,15.7,35.1,34.9v0.9h42.8v-1.8H122.5z"/>
	<path style="fill-rule:evenodd;clip-rule:evenodd;fill:#1D1D1B;" d="M101.7,25.9c-4-1.2-9.9,1-13.8,4.5c0.9-1.6,3-2.8,3.3-4.7
		c0.3-1.4-0.5-2.8-2.3-3.4c-2.1-0.6-4,0.7-4.5,2.6c-5.8-4.8-16.7-2.3-16.7,6.8c0,10.4,14.5,14.2,18.9,18.9
		c4.2-3.7,13.7-6.6,17.2-12.9c0,0,0,0,0,0C108.3,31.4,105.4,27,101.7,25.9z"/>
	<g>
		<linearGradient id="SVGID_4_" gradientUnits="userSpaceOnUse" x1="66.3314" y1="35.6581" x2="103.7208" y2="35.6581">
			<stop  offset="5.076140e-03" style="stop-color:#993D16"/>
			<stop  offset="0.1469" style="stop-color:#F8F2B1"/>
			<stop  offset="0.1619" style="stop-color:#F7EFAD"/>
			<stop  offset="0.178" style="stop-color:#F5E6A0"/>
			<stop  offset="0.1946" style="stop-color:#F0D78A"/>
			<stop  offset="0.2116" style="stop-color:#EAC26C"/>
			<stop  offset="0.2287" style="stop-color:#E3A746"/>
			<stop  offset="0.245" style="stop-color:#DA891A"/>
			<stop  offset="0.2843" style="stop-color:#F2BB4D"/>
			<stop  offset="0.5112" style="stop-color:#C9A66E"/>
			<stop  offset="0.5497" style="stop-color:#CBAA72"/>
			<stop  offset="0.5871" style="stop-color:#D3B67C"/>
			<stop  offset="0.624" style="stop-color:#DFC98E"/>
			<stop  offset="0.6604" style="stop-color:#F0E4A7"/>
			<stop  offset="0.6756" style="stop-color:#F9F2B3"/>
			<stop  offset="0.7316" style="stop-color:#F8F0B1"/>
			<stop  offset="0.7518" style="stop-color:#F6EBAA"/>
			<stop  offset="0.7662" style="stop-color:#F2E19F"/>
			<stop  offset="0.7778" style="stop-color:#EDD38E"/>
			<stop  offset="0.7877" style="stop-color:#E6C178"/>
			<stop  offset="0.7966" style="stop-color:#DDAB5C"/>
			<stop  offset="0.8044" style="stop-color:#D2913D"/>
			<stop  offset="0.8115" style="stop-color:#C67418"/>
			<stop  offset="0.8123" style="stop-color:#C57014"/>
			<stop  offset="1" style="stop-color:#F9F0AF"/>
		</linearGradient>
		<path style="fill-rule:evenodd;clip-rule:evenodd;fill:url(#SVGID_4_);" d="M85.2,26.7c0-1.7,0.1-3.4,2.3-3.8
			c2.4,0.2,1.1,1,1.1,2.3c-0.1,1.7-3.5,4.7-4.9,7.8c-2.3,1.1,8-6.6,13.7-6.2c4.3,0.6,8,3.7,5.4,9.2c-3.2,6.8-13.3,9.9-17.6,13.7
			c-4.4-4.7-18.9-8.5-18.9-18.9C66.3,20.3,80.8,18.6,85.2,26.7z"/>
		<path style="fill-rule:evenodd;clip-rule:evenodd;fill:#FFFFFF;" d="M102.5,36.8c2.9-13.1-14.8-7.2-20-1.4c-0.3-1.4,0-3.6,0.8-4.8
			c0.9-1.3,2.2-2.1,3.3-3c0.9-0.7,3.1-3.4,1.3-4.2c-2.1-0.9-3.2,2.3-1.7,2.6c-0.6,0.5-1.1,1-1.7,1.5c-0.6-0.6-1.3-1.2-1.5-2
			c-0.4-2.6,1.9-4.8,4.5-4c1.8,0.6,2.5,2,2.3,3.4c-0.3,1.9-2.4,3.1-3.3,4.7c3.9-3.5,9.8-5.7,13.8-4.5
			C103.9,26.2,106.8,30.5,102.5,36.8z"/>
		<polygon style="fill-rule:evenodd;clip-rule:evenodd;fill:#FFFFFF;" points="82.5,26.3 83.6,27.1 81.4,28.9 		"/>
	</g>
</g>
</svg>
